# Wavefront .obj file  -  created by SpaceDraw

# File created: 19-10-04, 15:09

mtllib CS64 Lighting Fix.mtl

#
# object pyramid1
#

v -1.941182 -0.188844 1.732713
v -0.208469 -5.81 0.0
v -1.732713 -0.188844 1.941182
v 0.0 -5.81 0.208469
v 0.0 -5.81 -0.208469
v -1.732713 -0.188844 -1.941182
v -1.941182 -0.188844 -1.732713
v 1.941182 -0.188844 -1.732713
v 0.208469 -5.81 0.0
v 1.732713 -0.188844 -1.941182
v 1.941182 -0.188844 1.732713
v 1.732713 -0.188844 1.941182
v 1.732713 0.188844 1.941182
v 0.0 5.81 0.208469
v 1.941182 0.188844 1.732713
v 0.208469 5.81 0.0
v -1.732713 0.188844 1.941182
v -0.208469 5.81 0.0
v -1.941182 0.188844 1.732713
v -1.941182 0.188844 -1.732713
v -1.732713 0.188844 -1.941182
v 0.0 5.81 -0.208469
v 1.941182 0.188844 -1.732713
v 1.732713 0.188844 -1.941182
v 0.0 -5.96 0.0
v 0.0 5.96 0.0
v 0.0 -5.93 0.076133996
v 0.076133996 -5.93 0.0
v -0.076133996 -5.93 0.0
v 0.0 -5.93 -0.076133996
v 0.076133996 5.93 0.0
v 0.0 5.93 0.076133996
v 0.0 5.93 -0.076133996
v -0.076133996 5.93 0.0
v 1.9 0.0 1.9
v -1.9 0.0 1.9
v -1.9 0.0 -1.9
v 1.897003 -0.009068 -1.900223
# 38 vertices

vn 0.3304 -0.2447 -0.9115
vn -0.3304 -0.2426 -0.91209996
vn 0.0 -0.5679 -0.82299995
vn 0.91209996 -0.2426 0.3304
vn 0.9105 -0.2447 -0.3331
vn 0.82299995 -0.5679 0.0
vn 0.3304 -0.2426 0.91209996
vn -0.3304 -0.2426 0.91209996
vn 0.0 -0.5679 0.82299995
vn -0.91209996 -0.2426 -0.3304
vn -0.82299995 -0.5679 0.0
vn -0.91209996 -0.2426 0.3304
vn 0.0 0.5679 0.82299995
vn 0.3304 0.2426 0.91209996
vn -0.3304 0.2426 0.91209996
vn 0.82299995 0.5679 0.0
vn 0.91209996 0.2426 0.3304
vn 0.91179997 0.23719999 -0.3351
vn -0.3304 0.2426 -0.91209996
vn 0.0 0.5679 -0.82299995
vn 0.3324 0.2373 -0.9127
vn -0.91209996 0.2426 0.3304
vn -0.82299995 0.5679 0.0
vn -0.91209996 0.2426 -0.3304
vn 0.51809996 -0.8552 0.0
vn 0.0 -0.8552 0.51809996
vn -0.51809996 -0.8552 0.0
vn 0.0 -0.8552 -0.51809996
vn 0.51809996 0.8552 0.0
vn 0.0 0.8552 0.51809996
vn 0.0 0.8552 -0.51809996
vn -0.51809996 0.8552 0.0
vn 0.0 -1.0 0.0
vn 0.0 1.0 0.0
vn 0.7071 0.0 0.7071
vn -0.7071 0.0 0.7071
vn 0.7047 -0.0093 -0.7094
vn -0.7071 0.0 -0.7071
# 38 vertex normals

vt 0.373272 0.005884 1.000023
vt 0.02673 0.005884 1.000023
vt 0.2 0.17915499 1.000023
vt 0.37327 0.005886 1.000016
vt 0.026731 0.005886 1.000016
vt 0.200001 0.17915499 1.000016
vt 0.02672 0.005879 0.99998
vt 0.373263 0.005879 0.99998
vt 0.199992 0.17915 0.99998
vt 0.373266 0.005875 0.999965
vt 0.199993 0.179149 0.999965
vt 0.02672 0.005875 0.999965
vt 0.199988 -0.220839 0.999974
vt 0.373259 -0.394111 0.999974
vt 0.026716 -0.394111 0.999974
vt 0.22085 -0.200007 1.00003
vt 0.39412498 -0.373281 1.00003
vt 0.39412498 -0.026734 1.00003
vt 0.026735 -0.005884 1.000026
vt 0.200006 -0.179156 1.000026
vt 0.373278 -0.005884 1.000026
vt 0.005877 -0.373261 0.999981
vt 0.179147 -0.199991 0.999981
vt 0.005877 -0.026721 0.999981
vt 0.199998 0.179153 1.000003
vt 0.199995 0.179152 0.99999
vt 0.199995 0.179151 0.999985
vt 0.199998 0.179153 1.000006
vt 0.207614 -0.200001 1.000013
vt 0.199995 -0.207609 0.999992
vt 0.200001 -0.192386 1.000011
vt 0.192383 -0.199996 0.999995
vt 0.199996 0.179152 0.999996
vt 0.199998 -0.199998 1.000003
vt 0.291844 -0.188906 1.0
vt 0.108144 -0.188904 0.999975
vt 0.291851 -0.005212 1.000024
vt 0.108152 -0.005211 0.999999
# 38 texture coords

g pyramid1

usemtl shiny light?
s off
f 6/2/2 10/1/1 5/3/3
f 8/5/5 11/4/4 9/6/6
f 12/7/7 3/8/8 4/9/9
f 1/12/12 7/10/10 2/11/11
f 17/15/15 13/14/14 14/13/13
f 15/17/17 23/18/18 16/16/16
f 24/21/21 21/19/19 22/20/20
f 20/24/24 19/22/22 18/23/23
s 1
f 1/12/12 2/11/11 4/9/9 3/8/8
s 2
f 2/11/11 7/10/10 6/2/2 5/3/3
s 3
f 8/5/5 9/6/6 5/3/3 10/1/1
s 4
f 12/7/7 4/9/9 9/6/6 11/4/4
s 5
f 15/17/17 16/16/16 14/13/13 13/14/14
s 6
f 18/23/23 19/22/22 17/15/15 14/13/13
s 7
f 20/24/24 18/23/23 22/20/20 21/19/19
s 8
f 24/21/21 22/20/20 16/16/16 23/18/18
s 9
f 21/19/19 24/21/21 10/1/1 6/2/2
s 10
f 19/22/22 20/24/24 7/10/10 1/12/12
s 11
f 13/14/14 17/15/15 3/8/8 12/7/7
s 12
f 23/18/18 15/17/17 11/4/4 8/5/5
s 13
f 9/6/6 4/9/9 27/26/26 28/25/25
f 4/9/9 2/11/11 29/27/27 27/26/26
f 2/11/11 5/3/3 30/28/28 29/27/27
f 5/3/3 9/6/6 28/25/25 30/28/28
s 14
f 14/13/13 16/16/16 31/29/29 32/30/30
f 16/16/16 22/20/20 33/31/31 31/29/29
f 22/20/20 18/23/23 34/32/32 33/31/31
f 18/23/23 14/13/13 32/30/30 34/32/32
s off
f 30/28/28 28/25/25 25/33/33
f 27/26/26 29/27/27 25/33/33
f 28/25/25 27/26/26 25/33/33
f 29/27/27 30/28/28 25/33/33
f 32/30/30 31/29/29 26/34/34
f 31/29/29 33/31/31 26/34/34
f 34/32/32 32/30/30 26/34/34
f 33/31/31 34/32/32 26/34/34
s 15
f 13/14/14 12/7/7 35/35/35
f 12/7/7 11/4/4 35/35/35
f 11/4/4 15/17/17 35/35/35
f 15/17/17 13/14/14 35/35/35
s 16
f 17/15/15 19/22/22 36/36/36
f 19/22/22 1/12/12 36/36/36
f 1/12/12 3/8/8 36/36/36
f 3/8/8 17/15/15 36/36/36
s 17
f 8/5/5 10/1/1 38/37/37
f 10/1/1 24/21/21 38/37/37
f 24/21/21 23/18/18 38/37/37
f 23/18/18 8/5/5 38/37/37
s 18
f 7/10/10 37/38/38 6/2/2
f 7/10/10 20/24/24 37/38/38
f 6/2/2 37/38/38 21/19/19
f 21/19/19 37/38/38 20/24/24
# 52 polygons

